<?xml version="1.0" encoding="UTF-8"?>
<svg width="892px" height="166px" viewBox="0 0 892 166" version="1.1" xmlns="http://www.w3.org/2000/svg" xmlns:xlink="http://www.w3.org/1999/xlink">
    <!-- Generator: Sketch 49.3 (51167) - http://www.bohemiancoding.com/sketch -->
    <title>BermudaDigitalStudio/BDS_Logo_white</title>
    <desc>Created with Sketch.</desc>
    <defs></defs>
    <g id="BermudaDigitalStudio/BDS_Logo_white" stroke="none" stroke-width="1" fill="none" fill-rule="evenodd">
        <g id="bildmarke" transform="translate(-1.000000, 0.971831)" fill="#FFFFFF">
            <path d="M71.6215824,155.706645 L48.2245846,132.455445 C48.1967405,132.400104 48.1768519,132.33488 48.1350857,132.291398 C43.2882238,127.476715 43.2882238,119.640009 48.1350857,114.821374 C49.6088341,113.358786 51.3630122,112.348809 53.2285668,111.77168 L50.8001637,103.207633 C47.5066047,104.180056 44.4019878,105.952951 41.80652,108.534221 C33.6402439,116.647633 33.4950568,129.731868 41.3252149,138.050833 L41.2615713,138.11408 L59.0042283,155.746174 C55.5376381,155.756056 51.8124955,155.767915 47.8288007,155.779774 L36.4365869,144.456574 C36.347088,144.36368 36.2754889,144.264856 36.1820122,144.171962 C24.7440546,132.80528 24.7440546,114.311445 36.1820122,102.944762 C43.9843263,95.1890918 55.1279321,92.7362918 65.0523641,95.5606682 L67.5185557,87.0183624 C54.5690612,83.3342212 40.0344421,86.5361035 29.8534465,96.6536565 C14.972765,111.443586 14.9329878,135.475492 29.7261592,150.318786 L29.7022929,150.342504 L34.9946604,155.601892 L23.1092082,155.601892 C15.1080078,147.267115 10.185569,135.987398 10.185569,123.557374 C10.185569,97.9067388 31.1123976,77.1103153 56.9238764,77.1103153 C82.7373441,77.1103153 103.662184,97.9067388 103.662184,123.557374 C103.662184,126.931209 103.288277,130.21808 102.598141,133.386362 L111.599741,133.386362 L111.599741,126.116904 L119.022182,126.116904 L119.022182,118.602362 L126.440645,118.602362 L126.440645,103.851962 L111.599741,103.851962 L111.599741,96.5923859 L119.022182,96.5923859 L119.022182,89.2181741 L133.863086,89.2181741 L133.863086,67.0915859 L111.599741,67.0915859 L111.599741,74.4677741 L96.7568474,74.4677741 L96.7568474,59.7173741 L81.9139543,59.7173741 L81.9139543,44.9669741 L59.6486203,44.9669741 L59.6486203,52.3411859 L37.3852751,52.3411859 L37.3852751,67.0915859 L22.4727717,67.0915859 L22.438961,7.91210353 L97.876578,7.91210353 C138.487195,8.35285647 171.275609,41.4962918 171.275609,81.9566212 C171.275609,122.689704 135.573509,155.633515 94.5850078,155.635492 C89.4119722,155.651304 82.0670969,155.673045 71.6215824,155.706645 M171.510295,0.00622117647 L22.438961,0.00622117647 C18.061471,0.00622117647 14.4835045,3.56189176 14.4835045,7.91210353 L14.8494555,87.5342212 C5.89360022,97.3730918 0.999005568,110.143068 0.999005568,123.877562 C0.999005568,138.629939 6.6493686,151.72208 17.3355356,161.740809 L19.7042728,163.958409 L171.510295,163.960386 C175.885796,163.960386 179.465752,160.402739 179.465752,156.054504 L179.465752,7.91210353 C179.465752,3.56189176 175.885796,0.00622117647 171.510295,0.00622117647" id="Fill-4"></path>
            <polygon id="Fill-1" points="81.9129599 44.9667765 96.755853 44.9667765 96.755853 30.2163765 81.9129599 30.2163765"></polygon>
            <polygon id="Fill-2" points="133.86408 111.225976 141.286521 111.225976 141.286521 103.853741 133.86408 103.853741"></polygon>
            <polygon id="Fill-3" points="111.600735 59.7171765 119.021187 59.7171765 119.021187 52.3449412 111.600735 52.3449412"></polygon>
        </g>
        <path d="M242.227145,38.4048941 L242.227145,57.1932235 L254.257784,57.1932235 C260.367575,57.1932235 265.33178,54.9163294 265.33178,49.1292235 L265.33178,46.376 C265.33178,40.6817882 260.176644,38.4048941 254.830577,38.4048941 L242.227145,38.4048941 Z M242.227145,12.7878588 L242.227145,27.3999059 L253.49406,27.3999059 C257.885472,27.3999059 262.181419,25.5973647 262.181419,20.7589647 L262.181419,19.8102588 C262.181419,14.6872471 257.885472,12.7878588 253.49406,12.7878588 L242.227145,12.7878588 Z M228.764524,1.78287059 L254.35325,1.78287059 C268.100279,1.78287059 276.694161,7.09364706 276.694161,18.6718118 L276.694161,20.9487059 C276.694161,26.8326588 273.161938,30.3408941 267.909348,32.3331765 C275.739506,34.1357176 279.844521,38.5017412 279.844521,45.9945412 L279.844521,50.0739765 C279.844521,62.504 269.245864,68.1982118 256.356036,68.1982118 L228.764524,68.1982118 L228.764524,1.78287059 Z" id="Fill-7" fill="#FFFFFF"></path>
        <polygon id="Fill-9" fill="#FFFFFF" points="289.76776 1.78227765 333.781324 1.78227765 333.781324 12.7872659 303.230382 12.7872659 303.230382 29.4884424 325.378373 29.4884424 325.378373 40.4934306 303.230382 40.4934306 303.230382 57.1926306 334.831444 57.1926306 334.831444 68.1995953 289.76776 68.1995953"></polygon>
        <path d="M357.740573,12.7880565 L357.740573,33.6615624 L370.723878,33.6615624 C376.1674,33.6615624 380.272415,31.3826918 380.272415,25.6924329 L380.272415,20.7591624 C380.272415,15.1617976 376.358331,12.7880565 370.723878,12.7880565 L357.740573,12.7880565 Z M368.625627,44.6665506 L357.740573,44.6665506 L357.740573,68.1984094 L344.277952,68.1984094 L344.277952,1.78306824 L373.494366,1.78306824 C385.904878,1.78306824 393.923979,7.47530353 393.923979,19.1463624 L393.923979,27.1135153 C393.923979,36.2230682 389.248159,41.4429271 381.990794,43.6249506 L396.694466,68.1984094 L382.181725,68.1984094 L368.625627,44.6665506 Z" id="Fill-11" fill="#FFFFFF"></path>
        <polygon id="Fill-13" fill="#FFFFFF" points="416.831716 26.4496188 416.831716 68.1986071 405.184927 68.1986071 405.184927 1.78326588 415.87905 1.78326588 439.554489 43.8129129 463.327382 1.78326588 474.11697 1.78326588 474.11697 68.1986071 462.468192 68.1986071 462.468192 26.5464659 445.664279 57.1936188 433.635629 57.1936188"></polygon>
        <path d="M542.94579,1.78227765 L542.94579,45.23696 C542.94579,60.7977129 535.78389,69.1483012 518.407184,69.1483012 L511.247273,69.1483012 C494.063487,69.1483012 487.092518,60.7977129 487.092518,45.23696 L487.092518,1.78227765 L500.648616,1.78227765 L500.648616,44.0985129 C500.648616,53.5875482 504.469224,58.0464659 513.063106,58.0464659 L516.59334,58.0464659 C525.378153,58.0464659 529.387703,53.5875482 529.387703,44.0985129 L529.387703,1.78227765 L542.94579,1.78227765 Z" id="Fill-15" fill="#FFFFFF"></path>
        <path d="M569.383761,57.2855247 L583.608117,57.2855247 C593.729447,57.2855247 598.025394,52.5419953 598.025394,45.9010541 L598.025394,24.2685835 C598.025394,18.1039718 593.729447,12.7872659 583.608117,12.7872659 L569.383761,12.7872659 L569.383761,57.2855247 Z M555.92114,1.78227765 L585.421961,1.78227765 C603.373449,1.78227765 611.678946,9.75338353 611.678946,23.5076424 L611.678946,46.6619953 C611.678946,60.5131012 603.373449,68.1976188 585.421961,68.1976188 L555.92114,68.1976188 L555.92114,1.78227765 Z" id="Fill-17" fill="#FFFFFF"></path>
        <path d="M637.071172,42.7709176 L655.114148,42.7709176 L646.142382,13.3590588 L637.071172,42.7709176 Z M677.266116,68.1982118 L662.944306,68.1982118 L658.552894,53.7759059 L633.632426,53.7759059 L629.241014,68.1982118 L615.016658,68.1982118 L637.834896,1.78287059 L654.638809,1.78287059 L677.266116,68.1982118 Z" id="Fill-19" fill="#FFFFFF"></path>
        <path d="M237.740665,158.784405 L255.594699,158.784405 C268.100676,158.784405 273.351278,152.61584 273.351278,144.172358 L273.351278,120.262993 C273.351278,112.009252 268.100676,104.890005 255.594699,104.890005 L237.740665,104.890005 L237.740665,158.784405 Z M230.292369,98.6285459 L256.262957,98.6285459 C272.778485,98.6285459 281.083982,106.694522 281.083982,120.450758 L281.083982,143.98064 C281.083982,157.738852 272.778485,165.045864 256.262957,165.045864 L230.292369,165.045864 L230.292369,98.6285459 Z" id="Fill-21" fill="#FFFFFF"></path>
        <polygon id="Fill-23" fill="#FFFFFF" points="295.592944 165.046654 303.039252 165.046654 303.039252 98.6293365 295.592944 98.6293365"></polygon>
        <path d="M349.054806,159.448301 C353.255287,159.448301 357.169371,158.877101 360.319732,158.213007 L360.319732,138.100442 L343.897681,138.100442 L343.897681,131.835031 L368.054425,131.835031 L368.054425,162.579031 C366.429523,163.243125 361.083456,165.996348 349.054806,165.996348 L342.179302,165.996348 C326.141102,165.996348 317.54722,159.825807 317.54722,143.790701 L317.54722,120.830042 C317.54722,103.848207 329.100532,97.6796424 342.465699,97.6796424 L349.054806,97.6796424 C357.360302,97.6796424 363.374628,98.8180894 366.240581,99.8656188 L366.240581,106.504584 C362.517427,105.079548 356.78751,104.227689 348.861886,104.227689 L342.372222,104.227689 C335.019392,104.227689 325.186447,107.643031 325.186447,120.830042 L325.186447,143.790701 C325.186447,154.321336 330.914376,159.448301 342.179302,159.448301 L349.054806,159.448301 Z" id="Fill-25" fill="#FFFFFF"></path>
        <polygon id="Fill-26" fill="#FFFFFF" points="381.889759 165.046654 389.336067 165.046654 389.336067 98.6293365 381.889759 98.6293365"></polygon>
        <polygon id="Fill-27" fill="#FFFFFF" points="399.361135 98.6293365 447.384249 98.6293365 447.384249 104.890795 427.143579 104.890795 427.143579 165.046654 419.697271 165.046654 419.697271 104.890795 399.361135 104.890795"></polygon>
        <path d="M459.600051,141.98816 L484.51853,141.98816 L472.010564,105.273242 L459.600051,141.98816 Z M500.081392,165.045666 L492.348688,165.045666 L486.618771,148.249619 L457.404345,148.249619 L451.769893,165.045666 L444.039178,165.045666 L467.714617,98.6303247 L476.49943,98.6303247 L500.081392,165.045666 Z" id="Fill-28" fill="#FFFFFF"></path>
        <polygon id="Fill-29" fill="#FFFFFF" points="509.432236 98.6293365 516.878543 98.6293365 516.878543 158.785195 550.29345 158.785195 550.29345 165.046654 509.432236 165.046654"></polygon>
        <path d="M585.995749,115.707228 C585.995749,125.196264 594.396711,126.144969 602.990593,127.85264 C611.485032,129.655181 619.792517,132.309581 619.792517,146.067793 L619.792517,147.208216 C619.792517,160.964452 610.816773,165.994569 597.549061,165.994569 L594.683107,165.994569 C588.477851,165.994569 581.506882,164.664405 577.11547,163.336216 L577.11547,156.695275 C580.363286,158.023464 588.000524,159.541393 594.492176,159.541393 L597.260675,159.541393 C606.904678,159.541393 612.34621,156.317769 612.34621,147.303087 L612.34621,146.16464 C612.34621,135.91664 603.943259,134.685299 595.542297,133.070522 C586.948415,131.267981 578.740372,128.991087 578.740372,115.896969 L578.740372,114.665628 C578.740372,102.899699 587.2368,97.67984 600.506502,97.67984 L602.513265,97.67984 C607.954798,97.67984 614.160054,98.3439341 616.833087,98.9151341 L616.833087,105.366334 C614.541916,104.797111 607.954798,104.134993 602.513265,104.134993 L600.411036,104.134993 C592.105539,104.134993 585.995749,106.407934 585.995749,114.568781 L585.995749,115.707228 Z" id="Fill-30" fill="#FFFFFF"></path>
        <polygon id="Fill-31" fill="#FFFFFF" points="625.13401 98.6293365 673.157123 98.6293365 673.157123 104.890795 652.916453 104.890795 652.916453 165.046654 645.470145 165.046654 645.470145 104.890795 625.13401 104.890795"></polygon>
        <path d="M733.585379,98.6293365 L733.585379,142.370607 C733.585379,158.212019 726.234537,165.99536 709.907951,165.99536 L705.325608,165.99536 C689.571816,165.99536 682.602836,158.212019 682.602836,142.370607 L682.602836,98.6293365 L690.049143,98.6293365 L690.049143,141.987172 C690.049143,153.849948 695.013348,159.729948 705.802936,159.729948 L709.335159,159.729948 C720.886482,159.729948 726.139072,153.849948 726.139072,141.896254 L726.139072,98.6293365 L733.585379,98.6293365 Z" id="Fill-32" fill="#FFFFFF"></path>
        <path d="M757.067301,158.784405 L774.921335,158.784405 C787.427312,158.784405 792.677914,152.61584 792.677914,144.172358 L792.677914,120.262993 C792.677914,112.009252 787.427312,104.890005 774.921335,104.890005 L757.067301,104.890005 L757.067301,158.784405 Z M749.620994,98.6285459 L775.589593,98.6285459 C792.105121,98.6285459 800.412606,106.694522 800.412606,120.450758 L800.412606,143.98064 C800.412606,157.738852 792.105121,165.045864 775.589593,165.045864 L749.620994,165.045864 L749.620994,98.6285459 Z" id="Fill-33" fill="#FFFFFF"></path>
        <polygon id="Fill-34" fill="#FFFFFF" points="814.919183 165.046654 822.36549 165.046654 822.36549 98.6293365 814.919183 98.6293365"></polygon>
        <path d="M844.60835,144.265845 C844.60835,152.711304 850.240813,159.636856 862.651325,159.636856 L865.899141,159.636856 C878.405118,159.636856 883.753174,152.711304 883.753174,144.265845 L883.753174,119.409751 C883.753174,110.871398 878.405118,104.036762 865.899141,104.036762 L862.651325,104.036762 C850.240813,104.036762 844.60835,110.871398 844.60835,119.409751 L844.60835,144.265845 Z M836.873657,119.312904 C836.873657,105.84128 846.040332,97.6804329 861.887602,97.6804329 L866.567399,97.6804329 C882.416657,97.6804329 891.388423,105.84128 891.388423,119.409751 L891.388423,144.265845 C891.388423,157.927209 882.891996,165.995162 866.567399,165.995162 L861.887602,165.995162 C845.561016,165.995162 836.873657,157.927209 836.873657,144.265845 L836.873657,119.312904 Z" id="Fill-35" fill="#FFFFFF"></path>
    </g>
</svg>